<svg xmlns="http://www.w3.org/2000/svg" width="80" height="80" viewBox="0 0 80 80">
    <g fill="none" fill-rule="evenodd">
        <g>
            <g>
                <g>
                    <g fill-rule="nonzero">
                        <path fill="#000" d="M73.625 9.5H19V2.375C19 1.064 17.936 0 16.625 0H8.708c-1.31 0-2.375 1.064-2.375 2.375V9.5H2.375C1.064 9.5 0 10.564 0 11.875v7.917c0 1.31 1.064 2.375 2.375 2.375h3.958v51.458C6.333 74.936 7.397 76 8.708 76h7.125V38h44.334v38h7.125c1.31 0 2.375-1.064 2.375-2.375V22.167h3.958c1.311 0 2.375-1.064 2.375-2.375v-7.917c0-1.311-1.064-2.375-2.375-2.375z" transform="translate(-1057 -2605) translate(120 2474) translate(937 131) translate(2 2)"/>
                        <path fill="#00A699" d="M29.292 60.167v2.375c0 1.31-1.064 2.375-2.375 2.375s-2.375-1.064-2.375-2.375v-2.375H19c-.874 0-1.583.709-1.583 1.583v12.667c0 .874.709 1.583 1.583 1.583h15.833c.874 0 1.584-.71 1.584-1.583V61.75c0-.874-.71-1.583-1.584-1.583h-5.541zM51.458 60.167v2.375c0 1.31-1.064 2.375-2.375 2.375-1.31 0-2.375-1.064-2.375-2.375v-2.375h-5.541c-.874 0-1.584.709-1.584 1.583v12.667c0 .874.71 1.583 1.584 1.583H57c.874 0 1.583-.71 1.583-1.583V61.75c0-.874-.709-1.583-1.583-1.583h-5.542zM40.375 41.167v2.375c0 1.31-1.064 2.375-2.375 2.375s-2.375-1.064-2.375-2.375v-2.375h-5.542c-.874 0-1.583.709-1.583 1.583v12.667c0 .874.71 1.583 1.583 1.583h15.834c.874 0 1.583-.71 1.583-1.583V42.75c0-.874-.71-1.583-1.583-1.583h-5.542z" transform="translate(-1057 -2605) translate(120 2474) translate(937 131) translate(2 2)"/>
                    </g>
                </g>
            </g>
        </g>
    </g>
</svg>
