<svg xmlns="http://www.w3.org/2000/svg" width="80" height="80" viewBox="0 0 80 80">
    <g fill="none" fill-rule="evenodd">
        <g fill-rule="nonzero">
            <g>
                <g>
                    <path fill="#00A699" d="M40 23.594c-9.045 0-16.406 7.36-16.406 16.406 0 9.045 7.36 16.406 16.406 16.406 9.045 0 16.406-7.36 16.406-16.406 0-9.045-7.36-16.406-16.406-16.406zm-2.344 24.408L29.655 40l3.314-3.314 4.687 4.687 9.375-9.375 3.314 3.314-12.689 12.69z" transform="translate(-230 -1196) translate(120 1196) translate(110)"/>
                    <path fill="#000" d="M69.304 20.639l3.84-3.84-9.942-9.943-3.84 3.84c-3.74-2.472-7.94-4.211-12.33-5.106V0H32.968v5.59c-4.39.895-8.59 2.634-12.33 5.106l-3.84-3.84-9.943 9.942 3.84 3.84c-2.472 3.74-4.211 7.94-5.106 12.33H0v14.063h5.59c.895 4.39 2.634 8.59 5.106 12.33l-3.84 3.84 9.942 9.943 3.84-3.84c3.74 2.472 7.94 4.211 12.33 5.106V80h14.063v-5.59c4.39-.895 8.59-2.634 12.33-5.106l3.84 3.84 9.943-9.942-3.84-3.84c2.472-3.74 4.211-7.94 5.106-12.33H80V32.968h-5.59c-.895-4.39-2.634-8.59-5.106-12.33zM40 61.094c-11.632 0-21.094-9.462-21.094-21.094 0-11.632 9.462-21.094 21.094-21.094 11.632 0 21.094 9.462 21.094 21.094 0 11.632-9.462 21.094-21.094 21.094z" transform="translate(-230 -1196) translate(120 1196) translate(110)"/>
                </g>
            </g>
        </g>
    </g>
</svg>
