<svg xmlns="http://www.w3.org/2000/svg" width="73" height="50" viewBox="0 0 73 50">
    <g fill="none" fill-rule="evenodd">
        <g fill-rule="nonzero">
            <g>
                <path fill="#00A699" d="M50.694 18.579c.848.814 2.128.956 3.13.346 1.002-.61 1.479-1.821 1.165-2.961-.313-1.14-1.339-1.928-2.508-1.927-.831-.012-1.617.385-2.108 1.065-.49.68-.626 1.557-.364 2.356l-6.153 3.892c-.91-.885-2.32-.972-3.33-.205l-6.505-4.703c.526-1.163.15-2.54-.89-3.265-1.04-.726-2.446-.59-3.332.323-.886.912-.996 2.336-.261 3.377l-7.175 8.622c-1.182-.57-2.599-.16-3.306.955-.708 1.115-.486 2.589.518 3.44s2.477.814 3.438-.087c.96-.9 1.11-2.383.348-3.462l7.175-8.622c.864.431 1.894.332 2.662-.256l6.506 4.702c-.502 1.074-.235 2.354.654 3.13.888.775 2.178.856 3.154.196.976-.66 1.396-1.897 1.029-3.024l6.153-3.892z" transform="translate(-969 -1334) translate(969 1334)"/>
                <g fill="#010002">
                    <path d="M65.636 37.877V3.05c0-1.471-1.205-2.678-2.678-2.678H9.378c-1.474 0-2.681 1.2-2.681 2.678v34.827L0 45.914c0 2.215 1.798 4.016 4.019 4.016h64.298c2.217 0 4.019-1.802 4.019-4.016l-6.7-8.037zM41.53 48.595H30.812c-.37 0-.67-.298-.67-.67 0-.373.3-.67.67-.67H41.53c.366 0 .67.297.67.67-.01.373-.304.67-.671.67zm-16.405-2.678l2.044-2.453h17.994l2.047 2.453H25.125zm36.74-12.778c0 1.292-1.052 2.338-2.335 2.338H12.805c-1.283 0-2.336-1.055-2.336-2.338V5.115c0-1.292 1.053-2.338 2.336-2.338h46.726c1.283 0 2.335 1.053 2.335 2.338V33.14z" transform="translate(-969 -1334) translate(969 1334)"/>
                </g>
            </g>
        </g>
    </g>
</svg>
