<svg xmlns="http://www.w3.org/2000/svg" width="80" height="80" viewBox="0 0 80 80">
    <g fill="none" fill-rule="evenodd">
        <g>
            <g>
                <g>
                    <g fill-rule="nonzero">
                        <path fill="#00A699" d="M40.533 20.267C39.135 20.267 38 21.402 38 22.8s1.135 2.533 2.533 2.533c5.589 0 10.134 4.545 10.134 10.134 0 1.398 1.135 2.533 2.533 2.533s2.533-1.135 2.533-2.533c0-8.38-6.82-15.2-15.2-15.2z" transform="translate(-230 -2605) translate(120 2474) translate(110 131) translate(2 2)"/>
                        <path fill="#00A699" d="M40.533 10.133c-1.398 0-2.533 1.135-2.533 2.534 0 1.398 1.135 2.533 2.533 2.533C51.71 15.2 60.8 24.29 60.8 35.467c0 1.398 1.135 2.533 2.533 2.533 1.399 0 2.534-1.135 2.534-2.533 0-13.97-11.365-25.334-25.334-25.334z" transform="translate(-230 -2605) translate(120 2474) translate(110 131) translate(2 2)"/>
                        <path fill="#00A699" d="M40.533 0C39.135 0 38 1.135 38 2.533c0 1.399 1.135 2.534 2.533 2.534 16.766 0 30.4 13.634 30.4 30.4 0 1.398 1.135 2.533 2.534 2.533C74.865 38 76 36.865 76 35.467 76 15.909 60.086 0 40.533 0z" transform="translate(-230 -2605) translate(120 2474) translate(110 131) translate(2 2)"/>
                        <path fill="#000" d="M68.4 55.733c-7.357 0-14.364-1.6-20.824-4.757-.608-.304-1.307-.34-1.94-.117-.639.223-1.16.69-1.455 1.292L40.2 60.395C29.893 54.644 21.36 46.117 15.615 35.81l8.239-3.992c.608-.294 1.069-.816 1.292-1.454.218-.634.177-1.333-.122-1.941-3.156-6.46-4.757-13.467-4.757-20.824 0-1.398-1.135-2.533-2.534-2.533h-15.2C1.135 5.067 0 6.202 0 7.6 0 45.316 30.684 76 68.4 76c1.398 0 2.533-1.135 2.533-2.533v-15.2c0-1.399-1.135-2.534-2.533-2.534z" transform="translate(-230 -2605) translate(120 2474) translate(110 131) translate(2 2)"/>
                    </g>
                </g>
            </g>
        </g>
    </g>
</svg>
