<svg xmlns="http://www.w3.org/2000/svg" width="49" height="50" viewBox="0 0 49 50">
    <g fill="none" fill-rule="evenodd">
        <g fill-rule="nonzero">
            <g>
                <path fill="#000" d="M5.724 30.921c.66 0 1.198.537 1.198 1.195v16.689c0 .658-.538 1.195-1.198 1.195H1.198C.538 50 0 49.463 0 48.805V32.116c0-.658.538-1.195 1.198-1.195zm15.496-2.028l.425.01 7.823.318h.231c.901.011 1.67.68 1.78 1.58.11.942-.527 1.82-1.461 2.006l-5.813 1.097c-1.527.285-2.527 1.765-2.241 3.289.066.318.176.625.34.9l.627 1.063c.527.888 1.494 1.414 2.527 1.381l5.625-.186c2.352-.088 4.615-.932 6.45-2.39l3.429-2.765 1.068-.862c1.066-.859 2.107-1.7 2.986-2.415.79-.614 1.922-.515 2.593.23.022.044.055.088.087.132.627.756.528 1.897-.23 2.533l-8.175 6.765c-2.846 2.368-6.482 3.585-10.185 3.432l-11.812-.548c-1.659-.077-2.67.022-4.197.24-.011 0-.022 0-.033.012l-3.944.724v-12.5l4.702-2.27c2.769-1.338 5.11-1.864 7.823-1.765z" transform="translate(-282 -1334) translate(282 1334)"/>
                <path fill="#00A699" d="M32.776 0C26.05.011 20.612 5.45 20.6 12.15v.01c0 6.71 5.461 12.15 12.186 12.15 6.724 0 12.174-5.45 12.174-12.16C44.96 5.438 39.5 0 32.776 0zm2.823 8.772h1.473c.604 0 1.098.493 1.098 1.096 0 .603-.494 1.097-1.098 1.097h-1.473c-.22.855-.659 1.634-1.285 2.259-.824.822-1.923 1.305-3.088 1.37l4.143 3.915c.44.416.461 1.107.044 1.546-.418.438-1.11.46-1.55.044l-6.142-5.8c-.208-.21-.34-.494-.34-.79-.011-.614.483-1.108 1.098-1.119h2.462c.68.011 1.34-.252 1.835-.734.197-.209.362-.439.505-.691h-4.802c-.604 0-1.098-.494-1.098-1.097s.494-1.096 1.098-1.096h4.802c-.407-.877-1.308-1.535-2.34-1.535h-2.462c-.604 0-1.098-.494-1.098-1.097s.494-1.096 1.098-1.096h8.593c.604 0 1.098.493 1.098 1.096 0 .603-.494 1.097-1.098 1.097h-2.11c.308.471.516.987.637 1.535z" transform="translate(-282 -1334) translate(282 1334)"/>
            </g>
        </g>
    </g>
</svg>
